<?xml version="1.0" encoding="UTF-8" standalone="no"?>
<!DOCTYPE svg PUBLIC "-//W3C//DTD SVG 1.0//EN"
 "http://www.w3.org/TR/2001/REC-SVG-20010904/DTD/svg10.dtd">
<!-- Generated by dot version 1.8.9 (Wed Oct  2 09:41:21 MDT 2002)
     For user: (danbri) Dan Brickley   Title: rss    Pages: 1 -->
<svg width="1020px" height="568px"
 xmlns="http://www.w3.org/2000/svg">
<g id="graph0" class="graph" style="font-family:Times-Roman;font-size:14.00;">
<title>rss</title>
<g id="node1" class="node"><title>nsmcf</title>
<ellipse cx="564" cy="104" rx="98" ry="18" style="fill:none;stroke:black;"/>
<text text-anchor="middle" x="564" y="109">(Netscape) MCF in XML</text>
</g>
<g id="node3" class="node"><title>rss090</title>
<ellipse cx="653" cy="248" rx="79" ry="18" style="fill:none;stroke:black;"/>
<text text-anchor="middle" x="653" y="253">(Netscape) RSS 0.90</text>
</g>
<g id="edge2" class="edge"><title>nsmcf-&gt;rss090</title>
<path style="fill:none;stroke:black;" d="M586,122C597,132 609,145 618,158 631,178 640,203 646,222"/>
<polygon style="fill:black;stroke:black;" points="648,220 648,230 643,221 648,220"/>
</g>
<g id="node9" class="node"><title>rdf</title>
<ellipse cx="458" cy="176" rx="151" ry="18" style="fill:none;stroke:black;"/>
<text text-anchor="middle" x="458" y="181">Resource Description Framework (RDF)</text>
</g>
<g id="edge18" class="edge"><title>nsmcf-&gt;rdf</title>
<path style="fill:none;stroke:blue;stroke-dasharray:5,2;" d="M538,121C524,130 507,142 493,153"/>
<polygon style="fill:blue;stroke:blue;" points="495,155 485,158 492,151 495,155"/>
</g>
<g id="node21" class="node"><title>rss100</title>
<ellipse cx="496" cy="392" rx="35" ry="18" style="fill:none;stroke:black;"/>
<text text-anchor="middle" x="496" y="397">RSS 1.0</text>
</g>
<g id="edge24" class="edge"><title>rss090-&gt;rss100</title>
<path style="fill:none;stroke:black;" d="M590,259C563,267 534,280 515,302 500,320 496,346 495,366"/>
<polygon style="fill:black;stroke:black;" points="498,364 495,374 493,364 498,364"/>
</g>
<g id="node23" class="node"><title>nsrssfutures</title>
<ellipse cx="653" cy="320" rx="129" ry="18" style="fill:none;stroke:black;"/>
<text text-anchor="middle" x="653" y="325">(Netscape) RSS Futures document</text>
</g>
<g id="edge26" class="edge"><title>rss090-&gt;nsrssfutures</title>
<path style="fill:none;stroke:black;" d="M653,266C653,274 653,283 653,292"/>
<polygon style="fill:black;stroke:black;" points="656,292 653,302 651,292 656,292"/>
</g>
<g id="node26" class="node"><title>rss091</title>
<ellipse cx="877" cy="320" rx="77" ry="18" style="fill:none;stroke:black;"/>
<text text-anchor="middle" x="877" y="325">(Netscape) RSS 0.91</text>
</g>
<g id="edge30" class="edge"><title>rss090-&gt;rss091</title>
<path style="fill:none;stroke:black;" d="M699,263C734,274 784,290 821,302"/>
<polygon style="fill:black;stroke:black;" points="822,300 831,305 821,305 822,300"/>
</g>
<g id="node4" class="node"><title>applemcf</title>
<ellipse cx="768" cy="32" rx="140" ry="18" style="fill:none;stroke:black;"/>
<text text-anchor="middle" x="768" y="37">(Apple) Meta Content Format (MCF)</text>
</g>
<g id="edge6" class="edge"><title>applemcf-&gt;nsmcf</title>
<path style="fill:none;stroke:black;" d="M720,49C690,60 649,74 617,85"/>
<polygon style="fill:black;stroke:black;" points="619,87 609,88 617,82 619,87"/>
</g>
<g id="edge4" class="edge"><title>applemcf-&gt;rss090</title>
<path style="fill:none;stroke:black;" d="M744,50C732,59 718,72 709,86 682,129 666,186 658,221"/>
<polygon style="fill:black;stroke:black;" points="661,221 656,230 656,220 661,221"/>
</g>
<g id="node7" class="node"><title>mscdf</title>
<ellipse cx="847" cy="104" rx="129" ry="18" style="fill:none;stroke:black;"/>
<text text-anchor="middle" x="847" y="109">Channel Definition Format (CDF)</text>
</g>
<g id="edge14" class="edge"><title>applemcf-&gt;mscdf</title>
<path style="fill:none;stroke:blue;stroke-dasharray:5,2;" d="M788,50C798,59 810,70 821,80"/>
<polygon style="fill:blue;stroke:blue;" points="822,78 828,86 819,81 822,78"/>
</g>
<g id="node12" class="node"><title>sn</title>
<ellipse cx="877" cy="176" rx="100" ry="18" style="fill:none;stroke:black;"/>
<text text-anchor="middle" x="877" y="181">(Userland) ScriptingNews</text>
</g>
<g id="edge12" class="edge"><title>applemcf-&gt;sn</title>
<path style="fill:none;stroke:black;" d="M867,45C917,53 970,67 985,86 995,99 994,109 985,122 976,138 960,149 943,157"/>
<polygon style="fill:black;stroke:black;" points="944,159 934,161 942,155 944,159"/>
</g>
<g id="edge8" class="edge"><title>mscdf-&gt;rss090</title>
<path style="fill:none;stroke:black;" d="M821,122C805,132 785,145 768,158 738,180 705,206 682,224"/>
<polygon style="fill:black;stroke:black;" points="684,225 675,230 681,222 684,225"/>
</g>
<g id="edge16" class="edge"><title>mscdf-&gt;sn</title>
<path style="fill:none;stroke:black;" d="M855,122C858,130 862,140 866,149"/>
<polygon style="fill:black;stroke:black;" points="868,148 869,158 863,149 868,148"/>
</g>
<g id="edge10" class="edge"><title>rdf-&gt;rss090</title>
<path style="fill:none;stroke:blue;stroke-dasharray:5,2;" d="M505,193C534,204 572,218 601,229"/>
<polygon style="fill:blue;stroke:blue;" points="603,227 611,233 601,232 603,227"/>
</g>
<g id="edge38" class="edge"><title>rdf-&gt;rss100</title>
<path style="fill:none;stroke:blue;stroke-dasharray:5,2;" d="M459,194C463,227 470,300 487,364"/>
<polygon style="fill:blue;stroke:blue;" points="490,364 490,374 485,365 490,364"/>
</g>
<g id="edge32" class="edge"><title>sn-&gt;rss091</title>
<path style="fill:none;stroke:black;" d="M877,194C877,219 877,264 877,293"/>
<polygon style="fill:black;stroke:black;" points="880,292 877,302 875,292 880,292"/>
</g>
<g id="node16" class="node"><title>msxmldata</title>
<ellipse cx="96" cy="104" rx="90" ry="18" style="fill:none;stroke:black;"/>
<text text-anchor="middle" x="96" y="109">(Microsoft) XML-Data</text>
</g>
<g id="edge20" class="edge"><title>msxmldata-&gt;rdf</title>
<path style="fill:none;stroke:blue;stroke-dasharray:5,2;" d="M160,117C219,128 306,145 371,159"/>
<polygon style="fill:blue;stroke:blue;" points="372,157 381,161 371,161 372,157"/>
</g>
<g id="node18" class="node"><title>picsng</title>
<ellipse cx="326" cy="104" rx="122" ry="18" style="fill:none;stroke:black;"/>
<text text-anchor="middle" x="326" y="109">PICS Next-Generation proposals</text>
</g>
<g id="edge22" class="edge"><title>picsng-&gt;rdf</title>
<path style="fill:none;stroke:blue;stroke-dasharray:5,2;" d="M358,121C375,131 398,143 417,154"/>
<polygon style="fill:blue;stroke:blue;" points="417,151 425,158 415,156 417,151"/>
</g>
<g id="edge28" class="edge"><title>nsrssfutures-&gt;rss100</title>
<path style="fill:none;stroke:black;" d="M615,337C590,350 556,365 530,376"/>
<polygon style="fill:black;stroke:black;" points="532,378 522,380 530,373 532,378"/>
</g>
<g id="node29" class="node"><title>urss091</title>
<ellipse cx="877" cy="392" rx="77" ry="18" style="fill:none;stroke:black;"/>
<text text-anchor="middle" x="877" y="397">(Userland) RSS 0.91</text>
</g>
<g id="edge34" class="edge"><title>rss091-&gt;urss091</title>
<path style="fill:none;stroke:black;" d="M877,338C877,346 877,355 877,364"/>
<polygon style="fill:black;stroke:black;" points="880,364 877,374 875,364 880,364"/>
</g>
<g id="node30" class="node"><title>rss092</title>
<ellipse cx="877" cy="464" rx="79" ry="18" style="fill:none;stroke:black;"/>
<text text-anchor="middle" x="877" y="469">(Userland) RSS 0.92</text>
</g>
<g id="edge40" class="edge"><title>urss091-&gt;rss092</title>
<path style="fill:none;stroke:black;" d="M877,410C877,418 877,427 877,436"/>
<polygon style="fill:black;stroke:black;" points="880,436 877,446 875,436 880,436"/>
</g>
<g id="node32" class="node"><title>urss200</title>
<ellipse cx="877" cy="536" rx="70" ry="18" style="fill:none;stroke:black;"/>
<text text-anchor="middle" x="877" y="541">Userland RSS 2.0</text>
</g>
<g id="edge36" class="edge"><title>rss092-&gt;urss200</title>
<path style="fill:none;stroke:black;" d="M877,482C877,490 877,499 877,508"/>
<polygon style="fill:black;stroke:black;" points="880,508 877,518 875,508 880,508"/>
</g>
</g></svg>
