<svg>
<rect id="canvas" x="-1000%" y="-1000%" width="3000%" height="3000%" fill="#99CCEE" onmouseup="blubDragOff(evt)" onmousemove="dragBlub(evt)"/>

<g id="sproings"/>
<g id="highlightGroup"/>
<g id="focusCirc"/>
<g id="blubs"/>
<g id="branding">

	<g id="box_closed" transform="translate(10,10)">
		<path fill="#0099CC" stroke="#FFFFFF" stroke-width="1.0445" d="M0.522,35.522h152.514v-35H0.522V35.522z"/>
		<g onclick="gdoc.getElementById('aboutbox').setAttribute('style','display:block')">
			<path fill="#FFFFFF" stroke="#000000" stroke-width="0.8299" d="M147.495,20.926c0,3.979-3.177,7.203-7.096,7.203h-6.542c-3.919,0-7.096-3.224-7.096-7.203v-6.643c0-3.978,3.177-7.203,7.096-7.203h6.542c3.919,0,7.096,3.225,7.096,7.203V20.926z"/>
			<path d="M140.078,19.887l1.678-0.001v-4.03h-1.677L140.078,19.887z"/>
			<path d="M143.551,20.702l1.678-0.001v-4.845h-1.677L143.551,20.702z"/>
			<path d="M145.222,17.912V15.76l-7.795,0.001v2.151H145.222z"/>
			<path fill="#38CC99" stroke="#000000" stroke-width="1.4471" d="M137.786,16.964c0,2.295-1.86,4.154-4.154,4.154c-2.295,0-4.154-1.859-4.154-4.154c0-2.294,1.859-4.154,4.154-4.154C135.926,12.81,137.786,14.67,137.786,16.964z"/>
		</g>
		<g>
			<path fill="#FFFF66" d="M16.586,11.151c-0.242-0.083-0.57-0.145-0.984-0.187c-0.413-0.042-0.77-0.063-1.069-0.063c-0.501,0-0.878,0.128-1.133,0.383c-0.255,0.255-0.382,0.65-0.382,1.185v1.233h2.368v2.467h-2.368v10.97H9.183V16.17H7.916v-2.467h1.268v-1.726c0-1.208,0.415-2.224,1.247-3.044c0.83-0.821,1.868-1.231,3.112-1.231c0.625,0,1.221,0.052,1.785,0.156c0.564,0.104,0.983,0.227,1.259,0.369V11.151z"/>
			<path fill="#FFFF66" d="M31.795,20.171c0,2.208-0.632,3.966-1.897,5.274s-3,1.962-5.205,1.962c-2.372,0-4.148-0.659-5.33-1.975c-1.182-1.316-1.772-3.07-1.772-5.262c0-1.991,0.636-3.694,1.909-5.111c1.274-1.416,3.005-2.124,5.194-2.124c2.196,0,3.929,0.654,5.198,1.962C31.161,16.206,31.795,17.965,31.795,20.171z M27.928,20.171c0-1.085-0.286-2.052-0.856-2.898c-0.572-0.846-1.362-1.27-2.372-1.27c-1.16,0-1.989,0.386-2.49,1.158s-0.75,1.775-0.75,3.01c0,1.153,0.3,2.136,0.901,2.949c0.6,0.813,1.405,1.22,2.415,1.22c1.126,0,1.934-0.331,2.421-0.99C27.684,22.691,27.928,21.632,27.928,20.171z"/>
			<path fill="#FFFF66" d="M49.198,25.099l-2.985,2.476c-0.458-0.152-0.858-0.392-1.2-0.719c-0.342-0.328-0.566-0.703-0.675-1.124l-2.353,1.338c-0.091,0.05-0.249,0.102-0.47,0.155c-0.221,0.055-0.407,0.082-0.557,0.082c-1.811,0-3.306-0.622-4.487-1.866c-1.181-1.245-1.77-2.973-1.77-5.186c0-2.104,0.613-3.839,1.841-5.205s2.793-2.048,4.697-2.048c0.76,0,1.47,0.152,2.129,0.457c0.66,0.304,1.094,0.574,1.302,0.811l2.168-0.8l0.733,0.233v8.59c0,0.751,0.131,1.349,0.394,1.79C48.229,24.527,48.64,24.865,49.198,25.099z M43.938,23.231v-5.894c-0.251-0.311-0.579-0.577-0.984-0.8s-0.9-0.333-1.485-0.333c-0.844,0-1.544,0.307-2.099,0.92c-0.557,0.614-0.834,1.631-0.834,3.05c0,1.127,0.259,2.032,0.777,2.711c0.518,0.682,1.245,1.022,2.181,1.022c0.534,0,1.036-0.081,1.504-0.243C43.466,23.504,43.779,23.36,43.938,23.231z"/>
			<path fill="#FFFF66" d="M60.028,11.151c-0.242-0.083-0.57-0.145-0.983-0.187c-0.413-0.042-0.77-0.063-1.07-0.063c-0.501,0-0.878,0.128-1.133,0.383c-0.255,0.255-0.382,0.65-0.382,1.185v1.233h2.367v2.467H56.46v10.97h-3.835V16.17h-1.267v-2.467h1.267v-1.726c0-1.208,0.416-2.224,1.247-3.044c0.831-0.821,1.869-1.231,3.112-1.231c0.627,0,1.221,0.052,1.785,0.156c0.564,0.104,0.983,0.227,1.259,0.369V11.151z"/>
			<path fill="#FFFF66" d="M74.371,27.141h-3.834v-8.457c0-0.494-0.174-0.929-0.524-1.309c-0.349-0.38-0.884-0.57-1.605-0.57c-0.69,0-1.267,0.146-1.731,0.441c-0.465,0.294-0.834,0.569-1.107,0.826v9.069h-3.834V13.703l3.834-0.267v1.3l1.588-0.919c0.475-0.277,0.96-0.477,1.456-0.599c0.497-0.122,0.991-0.183,1.482-0.183c1.325,0,2.369,0.411,3.132,1.232c0.763,0.823,1.145,1.905,1.145,3.248V27.141z"/>
			<path fill="#FFFF66" d="M92.39,25.099l-2.984,2.476c-0.458-0.152-0.859-0.392-1.201-0.719c-0.341-0.328-0.566-0.703-0.675-1.124l-2.354,1.338c-0.091,0.05-0.248,0.102-0.469,0.155c-0.221,0.055-0.407,0.082-0.557,0.082c-1.81,0-3.307-0.622-4.486-1.866c-1.182-1.245-1.772-2.973-1.772-5.186c0-2.104,0.614-3.839,1.841-5.205s2.794-2.048,4.696-2.048c0.761,0,1.47,0.152,2.13,0.457c0.659,0.304,1.094,0.574,1.302,0.811l2.167-0.8l0.733,0.233v8.59c0,0.751,0.131,1.349,0.394,1.79C91.421,24.527,91.832,24.865,92.39,25.099z M87.13,23.231v-5.894c-0.251-0.311-0.58-0.577-0.984-0.8c-0.406-0.223-0.9-0.333-1.486-0.333c-0.844,0-1.544,0.307-2.098,0.92c-0.557,0.614-0.834,1.631-0.834,3.05c0,1.127,0.259,2.032,0.778,2.711c0.517,0.682,1.244,1.022,2.18,1.022c0.536,0,1.037-0.081,1.505-0.243C86.658,23.504,86.972,23.36,87.13,23.231z"/>
			<path fill="#FFFF66" d="M108.121,27.141h-3.834v-1.521l-1.586,0.901c-0.44,0.25-0.903,0.443-1.386,0.581c-0.483,0.137-1.003,0.207-1.561,0.207c-1.323,0-2.367-0.411-3.127-1.231c-0.763-0.821-1.143-1.907-1.143-3.258v-9.115h3.835v8.242c0,0.492,0.173,0.925,0.523,1.3c0.349,0.374,0.885,0.562,1.605,0.562c0.673,0,1.25-0.144,1.731-0.43c0.482-0.286,0.851-0.55,1.108-0.792v-8.882h3.834V27.141z"/>
			<path fill="#FFFF66" d="M118.814,24.807l-2.785,2.601c-1.15-0.475-2.013-1.169-2.588-2.084c-0.576-0.913-0.863-2.003-0.863-3.271V16.17h-1.267v-2.467h1.267V9.268l3.835-0.266v4.702h2v2.467h-2v4.806c0,0.961,0.216,1.756,0.649,2.392C117.497,24.002,118.08,24.481,118.814,24.807z"/>
		</g>
	</g>

<!--  Detail box... -->
	<g id="detailPanel" transform="translate(10,10)" style="display:block">
		<g>
			<g><path fill="#0099CC" stroke="#FFFFFF" d="M0.5,203h152.514V0.5H0.5V203z"/><path onclick="gdoc.getElementById('searchPanel').setAttribute('style','display:block');" fill="#CCFFFF" stroke="#003366" stroke-width="0.743" d="M102.218,51.17v-9.515c0-5.028,4.076-9.104,9.104-9.104h28.255c5.028,0,9.104,4.076,9.104,9.104v9.515"/><path onclick="gdoc.getElementById('imagePanel').setAttribute('style','display:block')" fill="#CCFFFF" stroke="#003366" stroke-width="0.743" d="M53.636,51.282v-9.515c0-5.028,4.076-9.104,9.104-9.104h28.255c5.028,0,9.104,4.076,9.104,9.104v9.515"/><path onclick="gdoc.getElementById('searchPanel').setAttribute('style','display:block')" fill="#CCFFFF" stroke="#003366" stroke-width="0.743" d="M5.479,51.354V41.84c0-5.028,4.076-9.104,9.104-9.104h28.255c5.028,0,9.104,4.076,9.104,9.104l0,8.452"/></g>
			<g><path fill="#99CCEE" stroke="#FFFFFF" d="M5.479,196.5h143.202V50.292H51.942l0-8.452c0-5.028-4.076-9.104-9.104-9.104H14.583c-5.028,0-9.104,4.076-9.104,9.104V196.5z"/><path fill="#F5F8CA" stroke="#000000" stroke-width="0.7508" d="M8.53,54.872h135.984v19.917H8.53V54.872z"/><path fill="#FFFFFF" stroke="#000000" stroke-width="0.5888" d="M8.596,80.938h135.918V143H8.596V80.938z"/><g id="details"> </g><text transform="matrix(1 0 0 1 14.3535 159.562)"><tspan x="0" y="0" id="knows">KNOWS 5 PEOPLE</tspan><tspan x="0" y="12" id="knownby">KNOWN BY 14 PEOPLE</tspan><tspan x="0" y="24" id="codepicted">PICTURED WITH 14 PEOPLE</tspan></text>
			</g>
			<g onclick="gdoc.getElementById('aboutbox').setAttribute('style','display:block')"><path fill="#FFFFFF" stroke="#000000" stroke-width="0.8299" d="M147.473,20.904c0,3.979-3.177,7.203-7.096,7.203h-6.542c-3.919,0-7.096-3.224-7.096-7.203v-6.643c0-3.978,3.177-7.203,7.096-7.203h6.542c3.919,0,7.096,3.225,7.096,7.203V20.904z"/><path d="M140.056,19.865l1.678-0.001v-4.03h-1.677L140.056,19.865z"/><path d="M143.528,20.679l1.678-0.001v-4.845h-1.677L143.528,20.679z"/><path d="M145.199,17.89v-2.152l-7.795,0.001v2.151H145.199z"/><path fill="#F70F34" stroke="#000000" stroke-width="1.4471" d="M137.763,16.941c0,2.295-1.86,4.154-4.154,4.154c-2.295,0-4.154-1.859-4.154-4.154c0-2.294,1.859-4.154,4.154-4.154C135.903,12.787,137.763,14.647,137.763,16.941z"/>
			</g>
			<g pointer-events="none"><text transform="matrix(1 0 0 1 10.6318 45.7676)"><tspan x="0" y="0" fill="#003366" font-family="'TrebuchetMS'" font-size="9.9583">DETAILS</tspan></text><text transform="matrix(1 0 0 1 59.9775 46.2803)"><tspan x="0" y="0" fill="#003366" font-family="'TrebuchetMS'" font-size="9.9583">IMAGES</tspan></text><text transform="matrix(1 0 0 1 107.8911 45.7676)"><tspan x="0" y="0" fill="#003366" font-family="'TrebuchetMS'" font-size="9.9583">SEARCH</tspan></text>
			</g>
		</g>
		<g>
			<path fill="#FFFF66" d="M16.563,11.129c-0.242-0.083-0.57-0.145-0.984-0.187c-0.413-0.042-0.77-0.063-1.069-0.063c-0.501,0-0.878,0.128-1.133,0.383c-0.255,0.255-0.382,0.65-0.382,1.185v1.233h2.368v2.467h-2.368v10.97H9.161v-10.97H7.893v-2.467h1.268v-1.726c0-1.208,0.415-2.224,1.247-3.044c0.83-0.821,1.868-1.231,3.112-1.231c0.625,0,1.221,0.052,1.785,0.156c0.564,0.104,0.983,0.227,1.259,0.369V11.129z"/>
			<path fill="#FFFF66" d="M31.773,20.149c0,2.208-0.632,3.966-1.897,5.274s-3,1.962-5.205,1.962c-2.372,0-4.148-0.659-5.33-1.975c-1.182-1.316-1.772-3.07-1.772-5.262c0-1.991,0.636-3.694,1.909-5.111c1.274-1.416,3.005-2.124,5.194-2.124c2.196,0,3.929,0.654,5.198,1.962C31.139,16.184,31.773,17.942,31.773,20.149z M27.905,20.149c0-1.085-0.286-2.052-0.856-2.898c-0.572-0.846-1.362-1.27-2.372-1.27c-1.16,0-1.989,0.386-2.49,1.158s-0.75,1.775-0.75,3.01c0,1.153,0.3,2.136,0.901,2.949c0.6,0.813,1.405,1.22,2.415,1.22c1.126,0,1.934-0.331,2.421-0.99C27.662,22.669,27.905,21.609,27.905,20.149z"/>
			<path fill="#FFFF66" d="M49.176,25.076l-2.985,2.476c-0.458-0.152-0.858-0.392-1.2-0.719c-0.342-0.328-0.566-0.703-0.675-1.124l-2.353,1.338c-0.091,0.05-0.249,0.102-0.47,0.155c-0.221,0.055-0.407,0.082-0.557,0.082c-1.811,0-3.306-0.622-4.487-1.866c-1.181-1.245-1.77-2.973-1.77-5.186c0-2.104,0.613-3.839,1.841-5.205s2.793-2.048,4.697-2.048c0.76,0,1.47,0.152,2.129,0.457c0.66,0.304,1.094,0.574,1.302,0.811l2.168-0.8l0.733,0.233v8.59c0,0.751,0.131,1.349,0.394,1.79C48.207,24.505,48.617,24.843,49.176,25.076z M43.916,23.209v-5.894c-0.251-0.311-0.579-0.577-0.984-0.8s-0.9-0.333-1.485-0.333c-0.844,0-1.544,0.307-2.099,0.92c-0.557,0.614-0.834,1.631-0.834,3.05c0,1.127,0.259,2.032,0.777,2.711c0.518,0.682,1.245,1.022,2.181,1.022c0.534,0,1.036-0.081,1.504-0.243C43.444,23.481,43.757,23.338,43.916,23.209z"/>
			<path fill="#FFFF66" d="M60.005,11.129c-0.242-0.083-0.57-0.145-0.983-0.187c-0.413-0.042-0.77-0.063-1.07-0.063c-0.501,0-0.878,0.128-1.133,0.383c-0.255,0.255-0.382,0.65-0.382,1.185v1.233h2.367v2.467h-2.367v10.97h-3.835v-10.97h-1.267v-2.467h1.267v-1.726c0-1.208,0.416-2.224,1.247-3.044c0.831-0.821,1.869-1.231,3.112-1.231c0.627,0,1.221,0.052,1.785,0.156c0.564,0.104,0.983,0.227,1.259,0.369V11.129z"/>
			<path fill="#FFFF66" d="M74.348,27.118h-3.834v-8.457c0-0.494-0.174-0.929-0.524-1.309c-0.349-0.38-0.884-0.57-1.605-0.57c-0.69,0-1.267,0.146-1.731,0.441c-0.465,0.294-0.834,0.569-1.107,0.826v9.069h-3.834V13.681l3.834-0.267v1.3l1.588-0.919c0.475-0.277,0.96-0.477,1.456-0.599c0.497-0.122,0.991-0.183,1.482-0.183c1.325,0,2.369,0.411,3.132,1.232c0.763,0.823,1.145,1.905,1.145,3.248V27.118z"/>
			<path fill="#FFFF66" d="M92.368,25.076l-2.984,2.476c-0.458-0.152-0.859-0.392-1.201-0.719c-0.341-0.328-0.566-0.703-0.675-1.124l-2.354,1.338c-0.091,0.05-0.248,0.102-0.469,0.155c-0.221,0.055-0.407,0.082-0.557,0.082c-1.81,0-3.307-0.622-4.486-1.866c-1.182-1.245-1.772-2.973-1.772-5.186c0-2.104,0.614-3.839,1.841-5.205s2.794-2.048,4.696-2.048c0.761,0,1.47,0.152,2.13,0.457c0.659,0.304,1.094,0.574,1.302,0.811l2.167-0.8l0.733,0.233v8.59c0,0.751,0.131,1.349,0.394,1.79C91.398,24.505,91.809,24.843,92.368,25.076z M87.107,23.209v-5.894c-0.251-0.311-0.58-0.577-0.984-0.8c-0.406-0.223-0.9-0.333-1.486-0.333c-0.844,0-1.544,0.307-2.098,0.92c-0.557,0.614-0.834,1.631-0.834,3.05c0,1.127,0.259,2.032,0.778,2.711c0.517,0.682,1.244,1.022,2.18,1.022c0.536,0,1.037-0.081,1.505-0.243C86.636,23.481,86.95,23.338,87.107,23.209z"/>
			<path fill="#FFFF66" d="M108.099,27.118h-3.834v-1.521l-1.586,0.901c-0.44,0.25-0.903,0.443-1.386,0.581c-0.483,0.137-1.003,0.207-1.561,0.207c-1.323,0-2.367-0.411-3.127-1.231c-0.763-0.821-1.143-1.907-1.143-3.258v-9.115h3.835v8.242c0,0.492,0.173,0.925,0.523,1.3c0.349,0.374,0.885,0.562,1.605,0.562c0.673,0,1.25-0.144,1.731-0.43c0.482-0.286,0.851-0.55,1.108-0.792v-8.882h3.834V27.118z"/>
			<path fill="#FFFF66" d="M118.792,24.784l-2.785,2.601c-1.15-0.475-2.013-1.169-2.588-2.084c-0.576-0.913-0.863-2.003-0.863-3.271v-5.881h-1.267v-2.467h1.267V9.245l3.835-0.266v4.702h2v2.467h-2v4.806c0,0.961,0.216,1.756,0.649,2.392C117.474,23.98,118.058,24.459,118.792,24.784z"/>
		</g>

	<g id="imagePanel" style="display:none">
		<g>
			<g><path fill="#0099CC" stroke="#FFFFFF" d="M0.5,203h152.514V0.5H0.5V203z"/><path onclick="gdoc.getElementById('searchPanel').setAttribute('style','display:block');" fill="#CCFFFF" stroke="#003366" stroke-width="0.743" d="M102.218,51.17v-9.515c0-5.028,4.076-9.104,9.104-9.104h28.255c5.028,0,9.104,4.076,9.104,9.104v9.515"/><path fill="#CCFFFF" stroke="#003366" stroke-width="0.743" d="M53.636,51.282v-9.515c0-5.028,4.076-9.104,9.104-9.104h28.255c5.028,0,9.104,4.076,9.104,9.104v9.515"/><path onclick="gdoc.getElementById('imagePanel').setAttribute('style','display:none');gdoc.getElementById('searchPanel').setAttribute('style','display:none');" fill="#CCFFFF" stroke="#003366" stroke-width="0.743" d="M5.479,51.354V41.84c0-5.028,4.076-9.104,9.104-9.104h28.255c5.028,0,9.104,4.076,9.104,9.104l0,8.452"/>
			</g>
			<g><path fill="#99CCEE" stroke="#FFFFFF" d="M100.099,50.338l48.582-0.047V196.5H5.479V50.292h48.157l0-8.524c0-5.028,4.076-9.104,9.104-9.104h28.255c5.028,0,9.104,4.076,9.104,9.104V50.338z"/><g><path fill="#CCCCCF" stroke="#000000" stroke-width="0.7874" d="M8.68,81.358h135.834v111.07	H8.68V81.358z"/></g><g><path fill="#F5F8CA" stroke="#000000" stroke-width="0.7508" d="M8.53,54.872h135.984v19.917	H8.53V54.872z"/>	<text transform="matrix(1 0 0 1 17.9155 68.9502)"><tspan x="0" y="0" font-family="'TrebuchetMS'" font-size="12" id="imgNick"> </tspan></text></g><text transform="matrix(1 0 0 1 66.7412 122.6665)"><tspan x="0" y="0" font-family="'TrebuchetMS'" font-size="12">No </tspan><tspan x="-12.237" y="14.5" font-family="'TrebuchetMS'" font-size="12">picture </tspan><tspan x="-15.404" y="29" font-family="'TrebuchetMS'" font-size="12">available</tspan></text>
			</g>
   <g id="imageLoc" transform="matrix(1 0 0 1 9.476 82.1454)"> </g>
			<g onclick="gdoc.getElementById('aboutbox').setAttribute('style','display:block')"><path fill="#FFFFFF" stroke="#000000" stroke-width="0.8299" d="M147.473,20.904c0,3.979-3.177,7.203-7.096,7.203h-6.542c-3.919,0-7.096-3.224-7.096-7.203v-6.643c0-3.978,3.177-7.203,7.096-7.203h6.542c3.919,0,7.096,3.225,7.096,7.203V20.904z"/><path d="M140.056,19.865l1.678-0.001v-4.03h-1.677L140.056,19.865z"/><path d="M143.528,20.679l1.678-0.001v-4.845h-1.677L143.528,20.679z"/><path d="M145.199,17.89v-2.152l-7.795,0.001v2.151H145.199z"/><path fill="#F70F34" stroke="#000000" stroke-width="1.4471" d="M137.763,16.941c0,2.295-1.86,4.154-4.154,4.154c-2.295,0-4.154-1.859-4.154-4.154c0-2.294,1.859-4.154,4.154-4.154C135.903,12.787,137.763,14.647,137.763,16.941z"/>
			</g>
			<g pointer-events="none"><text transform="matrix(1 0 0 1 10.6318 45.7676)"><tspan x="0" y="0" fill="#003366" font-family="'TrebuchetMS'" font-size="9.9583">DETAILS</tspan></text>	<text transform="matrix(1 0 0 1 59.9775 46.2803)"><tspan x="0" y="0" fill="#003366" font-family="'TrebuchetMS'" font-size="9.9583">IMAGES</tspan></text>		<text transform="matrix(1 0 0 1 107.8911 45.7676)"><tspan x="0" y="0" fill="#003366" font-family="'TrebuchetMS'" font-size="9.9583">SEARCH</tspan></text>
			</g>
		</g>
		<g >
			<path fill="#FFFF66" d="M16.563,11.129c-0.242-0.083-0.57-0.145-0.984-0.187c-0.413-0.042-0.77-0.063-1.069-0.063c-0.501,0-0.878,0.128-1.133,0.383c-0.255,0.255-0.382,0.65-0.382,1.185v1.233h2.368v2.467h-2.368v10.97H9.161v-10.97H7.893v-2.467h1.268v-1.726c0-1.208,0.415-2.224,1.247-3.044c0.83-0.821,1.868-1.231,3.112-1.231c0.625,0,1.221,0.052,1.785,0.156c0.564,0.104,0.983,0.227,1.259,0.369V11.129z"/>
			<path fill="#FFFF66" d="M31.773,20.149c0,2.208-0.632,3.966-1.897,5.274s-3,1.962-5.205,1.962c-2.372,0-4.148-0.659-5.33-1.975c-1.182-1.316-1.772-3.07-1.772-5.262c0-1.991,0.636-3.694,1.909-5.111c1.274-1.416,3.005-2.124,5.194-2.124c2.196,0,3.929,0.654,5.198,1.962C31.139,16.184,31.773,17.942,31.773,20.149z M27.905,20.149c0-1.085-0.286-2.052-0.856-2.898c-0.572-0.846-1.362-1.27-2.372-1.27c-1.16,0-1.989,0.386-2.49,1.158s-0.75,1.775-0.75,3.01c0,1.153,0.3,2.136,0.901,2.949c0.6,0.813,1.405,1.22,2.415,1.22c1.126,0,1.934-0.331,2.421-0.99C27.662,22.669,27.905,21.609,27.905,20.149z"/>
			<path fill="#FFFF66" d="M49.176,25.076l-2.985,2.476c-0.458-0.152-0.858-0.392-1.2-0.719c-0.342-0.328-0.566-0.703-0.675-1.124l-2.353,1.338c-0.091,0.05-0.249,0.102-0.47,0.155c-0.221,0.055-0.407,0.082-0.557,0.082c-1.811,0-3.306-0.622-4.487-1.866c-1.181-1.245-1.77-2.973-1.77-5.186c0-2.104,0.613-3.839,1.841-5.205s2.793-2.048,4.697-2.048c0.76,0,1.47,0.152,2.129,0.457c0.66,0.304,1.094,0.574,1.302,0.811l2.168-0.8l0.733,0.233v8.59c0,0.751,0.131,1.349,0.394,1.79C48.207,24.505,48.617,24.843,49.176,25.076z M43.916,23.209v-5.894c-0.251-0.311-0.579-0.577-0.984-0.8s-0.9-0.333-1.485-0.333c-0.844,0-1.544,0.307-2.099,0.92c-0.557,0.614-0.834,1.631-0.834,3.05c0,1.127,0.259,2.032,0.777,2.711c0.518,0.682,1.245,1.022,2.181,1.022c0.534,0,1.036-0.081,1.504-0.243C43.444,23.481,43.757,23.338,43.916,23.209z"/>
			<path fill="#FFFF66" d="M60.005,11.129c-0.242-0.083-0.57-0.145-0.983-0.187c-0.413-0.042-0.77-0.063-1.07-0.063c-0.501,0-0.878,0.128-1.133,0.383c-0.255,0.255-0.382,0.65-0.382,1.185v1.233h2.367v2.467h-2.367v10.97h-3.835v-10.97h-1.267v-2.467h1.267v-1.726c0-1.208,0.416-2.224,1.247-3.044c0.831-0.821,1.869-1.231,3.112-1.231c0.627,0,1.221,0.052,1.785,0.156c0.564,0.104,0.983,0.227,1.259,0.369V11.129z"/>
			<path fill="#FFFF66" d="M74.348,27.118h-3.834v-8.457c0-0.494-0.174-0.929-0.524-1.309c-0.349-0.38-0.884-0.57-1.605-0.57c-0.69,0-1.267,0.146-1.731,0.441c-0.465,0.294-0.834,0.569-1.107,0.826v9.069h-3.834V13.681l3.834-0.267v1.3l1.588-0.919c0.475-0.277,0.96-0.477,1.456-0.599c0.497-0.122,0.991-0.183,1.482-0.183c1.325,0,2.369,0.411,3.132,1.232c0.763,0.823,1.145,1.905,1.145,3.248V27.118z"/>
			<path fill="#FFFF66" d="M92.368,25.076l-2.984,2.476c-0.458-0.152-0.859-0.392-1.201-0.719c-0.341-0.328-0.566-0.703-0.675-1.124l-2.354,1.338c-0.091,0.05-0.248,0.102-0.469,0.155c-0.221,0.055-0.407,0.082-0.557,0.082c-1.81,0-3.307-0.622-4.486-1.866c-1.182-1.245-1.772-2.973-1.772-5.186c0-2.104,0.614-3.839,1.841-5.205s2.794-2.048,4.696-2.048c0.761,0,1.47,0.152,2.13,0.457c0.659,0.304,1.094,0.574,1.302,0.811l2.167-0.8l0.733,0.233v8.59c0,0.751,0.131,1.349,0.394,1.79C91.398,24.505,91.809,24.843,92.368,25.076z M87.107,23.209v-5.894c-0.251-0.311-0.58-0.577-0.984-0.8c-0.406-0.223-0.9-0.333-1.486-0.333c-0.844,0-1.544,0.307-2.098,0.92c-0.557,0.614-0.834,1.631-0.834,3.05c0,1.127,0.259,2.032,0.778,2.711c0.517,0.682,1.244,1.022,2.18,1.022c0.536,0,1.037-0.081,1.505-0.243C86.636,23.481,86.95,23.338,87.107,23.209z"/>
			<path fill="#FFFF66" d="M108.099,27.118h-3.834v-1.521l-1.586,0.901c-0.44,0.25-0.903,0.443-1.386,0.581c-0.483,0.137-1.003,0.207-1.561,0.207c-1.323,0-2.367-0.411-3.127-1.231c-0.763-0.821-1.143-1.907-1.143-3.258v-9.115h3.835v8.242c0,0.492,0.173,0.925,0.523,1.3c0.349,0.374,0.885,0.562,1.605,0.562c0.673,0,1.25-0.144,1.731-0.43c0.482-0.286,0.851-0.55,1.108-0.792v-8.882h3.834V27.118z"/>
			<path fill="#FFFF66" d="M118.792,24.784l-2.785,2.601c-1.15-0.475-2.013-1.169-2.588-2.084c-0.576-0.913-0.863-2.003-0.863-3.271v-5.881h-1.267v-2.467h1.267V9.245l3.835-0.266v4.702h2v2.467h-2v4.806c0,0.961,0.216,1.756,0.649,2.392C117.474,23.98,118.058,24.459,118.792,24.784z"/>
		</g>
	</g>

	<g id="searchPanel"  style="display:none">
		<g>
			<g><path fill="#0099CC" stroke="#FFFFFF" d="M0.5,203h152.514V0.5H0.5V203z"/><path fill="#CCFFFF" stroke="#003366" stroke-width="0.743" d="M102.218,51.17v-9.515c0-5.028,4.076-9.104,9.104-9.104h28.255c5.028,0,9.104,4.076,9.104,9.104v9.515"/><path  onclick="gdoc.getElementById('imagePanel').setAttribute('style','display:block');gdoc.getElementById('searchPanel').setAttribute('style','display:none')" fill="#CCFFFF" stroke="#003366" stroke-width="0.743" d="M53.636,51.282v-9.515c0-5.028,4.076-9.104,9.104-9.104h28.255c5.028,0,9.104,4.076,9.104,9.104v9.515"/><path onclick="gdoc.getElementById('imagePanel').setAttribute('style','display:none');gdoc.getElementById('searchPanel').setAttribute('style','display:none')" fill="#CCFFFF" stroke="#003366" stroke-width="0.743" d="M5.479,51.354V41.84c0-5.028,4.076-9.104,9.104-9.104h28.255c5.028,0,9.104,4.076,9.104,9.104l0,8.452"/>
			</g>
			<g><path fill="#99CCEE" stroke="#FFFFFF" d="M148.681,41.656V196.5H5.479V50.292h96.739l0-8.636c0-5.028,4.076-9.104,9.104-9.104h28.255C144.605,32.551,148.681,36.627,148.681,41.656z"/><g><path  onkeydown="keyDown(evt)" onkeypress="keyPress(evt)" fill="#FFFFFF" d="M115.014,130.396H13.007v-19.25h102.007V130.396z"/><g>	<path onclick="go()" fill="#38CC99" stroke="#003366" d="M140.897,123.579c0,3.485-2.782,6.308-6.214,6.308h-5.729		c-3.432,0-6.214-2.823-6.214-6.308v-5.817c0-3.483,2.782-6.308,6.214-6.308h5.729c3.432,0,6.214,2.825,6.214,6.308V123.579z"		/><text id="form" transform="matrix(1 0 0 1 14.5142 124.3955)" pointer-events="none" font-family="'Trebuchet MS', sans-serif" font-size="9" stroke-width="1.2" fill="black"> </text>					<text pointer-events="none" transform="matrix(1 0 0 1 124.5142 124.3955)"><tspan x="0" y="0" fill="#003366" font-family="'TrebuchetMS'" font-size="11">GO</tspan></text>	</g></g><g>	<path fill="none" d="M140.514,100.5v-38h-127v38H140.514z"/>	<text transform="matrix(1 0 0 1 13.5142 71.5)"><tspan x="0" y="0" font-family="'TrebuchetMS'" font-size="10">Type in an email address to </tspan><tspan x="0" y="12" font-family="'TrebuchetMS'" font-size="10">add a new node, or search </tspan><tspan x="0" y="24" font-family="'TrebuchetMS'" font-size="10">existing nodes</tspan></text></g><g>	<path fill="none" d="M135.514,183.5v-40h-121v40H135.514z"/>	<text transform="matrix(1 0 0 1 14.5142 152.5)"><tspan x="0" y="0" font-family="'TrebuchetMS'" font-size="10">For FOAFnaut help and </tspan><tspan x="0" y="12" font-family="'TrebuchetMS'" font-size="10">how-to,, see</tspan><tspan x="0" y="24" font-family="'TrebuchetMS'" font-size="10">http://foafnaut.org/help </tspan></text></g>
			</g>
			<g onclick="gdoc.getElementById('aboutbox').setAttribute('style','display:block')"><path fill="#FFFFFF" stroke="#000000" stroke-width="0.8299" d="M147.473,20.904c0,3.979-3.177,7.203-7.096,7.203h-6.542c-3.919,0-7.096-3.224-7.096-7.203v-6.643c0-3.978,3.177-7.203,7.096-7.203h6.542c3.919,0,7.096,3.225,7.096,7.203V20.904z"/><path d="M140.056,19.865l1.678-0.001v-4.03h-1.677L140.056,19.865z"/><path d="M143.528,20.679l1.678-0.001v-4.845h-1.677L143.528,20.679z"/><path d="M145.199,17.89v-2.152l-7.795,0.001v2.151H145.199z"/><path fill="#F70F34" stroke="#000000" stroke-width="1.4471" d="M137.763,16.941c0,2.295-1.86,4.154-4.154,4.154c-2.295,0-4.154-1.859-4.154-4.154c0-2.294,1.859-4.154,4.154-4.154C135.903,12.787,137.763,14.647,137.763,16.941z"/>
			</g>
			<g pointer-events="none"><text transform="matrix(1 0 0 1 10.6318 45.7676)"><tspan x="0" y="0" fill="#003366" font-family="'TrebuchetMS'" font-size="9.9583">DETAILS</tspan></text><text transform="matrix(1 0 0 1 59.9775 46.2803)"><tspan x="0" y="0" fill="#003366" font-family="'TrebuchetMS'" font-size="9.9583">IMAGES</tspan></text><text transform="matrix(1 0 0 1 107.8911 45.7676)"><tspan x="0" y="0" fill="#003366" font-family="'TrebuchetMS'" font-size="9.9583">SEARCH</tspan></text>
			</g>
		</g>
		<g >
			<path fill="#FFFF66" d="M16.563,11.129c-0.242-0.083-0.57-0.145-0.984-0.187c-0.413-0.042-0.77-0.063-1.069-0.063c-0.501,0-0.878,0.128-1.133,0.383c-0.255,0.255-0.382,0.65-0.382,1.185v1.233h2.368v2.467h-2.368v10.97H9.161v-10.97H7.893v-2.467h1.268v-1.726c0-1.208,0.415-2.224,1.247-3.044c0.83-0.821,1.868-1.231,3.112-1.231c0.625,0,1.221,0.052,1.785,0.156c0.564,0.104,0.983,0.227,1.259,0.369V11.129z"/>
			<path fill="#FFFF66" d="M31.773,20.149c0,2.208-0.632,3.966-1.897,5.274s-3,1.962-5.205,1.962c-2.372,0-4.148-0.659-5.33-1.975c-1.182-1.316-1.772-3.07-1.772-5.262c0-1.991,0.636-3.694,1.909-5.111c1.274-1.416,3.005-2.124,5.194-2.124c2.196,0,3.929,0.654,5.198,1.962C31.139,16.184,31.773,17.942,31.773,20.149z M27.905,20.149c0-1.085-0.286-2.052-0.856-2.898c-0.572-0.846-1.362-1.27-2.372-1.27c-1.16,0-1.989,0.386-2.49,1.158s-0.75,1.775-0.75,3.01c0,1.153,0.3,2.136,0.901,2.949c0.6,0.813,1.405,1.22,2.415,1.22c1.126,0,1.934-0.331,2.421-0.99C27.662,22.669,27.905,21.609,27.905,20.149z"/>
			<path fill="#FFFF66" d="M49.176,25.076l-2.985,2.476c-0.458-0.152-0.858-0.392-1.2-0.719c-0.342-0.328-0.566-0.703-0.675-1.124l-2.353,1.338c-0.091,0.05-0.249,0.102-0.47,0.155c-0.221,0.055-0.407,0.082-0.557,0.082c-1.811,0-3.306-0.622-4.487-1.866c-1.181-1.245-1.77-2.973-1.77-5.186c0-2.104,0.613-3.839,1.841-5.205s2.793-2.048,4.697-2.048c0.76,0,1.47,0.152,2.129,0.457c0.66,0.304,1.094,0.574,1.302,0.811l2.168-0.8l0.733,0.233v8.59c0,0.751,0.131,1.349,0.394,1.79C48.207,24.505,48.617,24.843,49.176,25.076z M43.916,23.209v-5.894c-0.251-0.311-0.579-0.577-0.984-0.8s-0.9-0.333-1.485-0.333c-0.844,0-1.544,0.307-2.099,0.92c-0.557,0.614-0.834,1.631-0.834,3.05c0,1.127,0.259,2.032,0.777,2.711c0.518,0.682,1.245,1.022,2.181,1.022c0.534,0,1.036-0.081,1.504-0.243C43.444,23.481,43.757,23.338,43.916,23.209z"/>
			<path fill="#FFFF66" d="M60.005,11.129c-0.242-0.083-0.57-0.145-0.983-0.187c-0.413-0.042-0.77-0.063-1.07-0.063c-0.501,0-0.878,0.128-1.133,0.383c-0.255,0.255-0.382,0.65-0.382,1.185v1.233h2.367v2.467h-2.367v10.97h-3.835v-10.97h-1.267v-2.467h1.267v-1.726c0-1.208,0.416-2.224,1.247-3.044c0.831-0.821,1.869-1.231,3.112-1.231c0.627,0,1.221,0.052,1.785,0.156c0.564,0.104,0.983,0.227,1.259,0.369V11.129z"/>
			<path fill="#FFFF66" d="M74.348,27.118h-3.834v-8.457c0-0.494-0.174-0.929-0.524-1.309c-0.349-0.38-0.884-0.57-1.605-0.57c-0.69,0-1.267,0.146-1.731,0.441c-0.465,0.294-0.834,0.569-1.107,0.826v9.069h-3.834V13.681l3.834-0.267v1.3l1.588-0.919c0.475-0.277,0.96-0.477,1.456-0.599c0.497-0.122,0.991-0.183,1.482-0.183c1.325,0,2.369,0.411,3.132,1.232c0.763,0.823,1.145,1.905,1.145,3.248V27.118z"/>
			<path fill="#FFFF66" d="M92.368,25.076l-2.984,2.476c-0.458-0.152-0.859-0.392-1.201-0.719c-0.341-0.328-0.566-0.703-0.675-1.124l-2.354,1.338c-0.091,0.05-0.248,0.102-0.469,0.155c-0.221,0.055-0.407,0.082-0.557,0.082c-1.81,0-3.307-0.622-4.486-1.866c-1.182-1.245-1.772-2.973-1.772-5.186c0-2.104,0.614-3.839,1.841-5.205s2.794-2.048,4.696-2.048c0.761,0,1.47,0.152,2.13,0.457c0.659,0.304,1.094,0.574,1.302,0.811l2.167-0.8l0.733,0.233v8.59c0,0.751,0.131,1.349,0.394,1.79C91.398,24.505,91.809,24.843,92.368,25.076z M87.107,23.209v-5.894c-0.251-0.311-0.58-0.577-0.984-0.8c-0.406-0.223-0.9-0.333-1.486-0.333c-0.844,0-1.544,0.307-2.098,0.92c-0.557,0.614-0.834,1.631-0.834,3.05c0,1.127,0.259,2.032,0.778,2.711c0.517,0.682,1.244,1.022,2.18,1.022c0.536,0,1.037-0.081,1.505-0.243C86.636,23.481,86.95,23.338,87.107,23.209z"/>
			<path fill="#FFFF66" d="M108.099,27.118h-3.834v-1.521l-1.586,0.901c-0.44,0.25-0.903,0.443-1.386,0.581c-0.483,0.137-1.003,0.207-1.561,0.207c-1.323,0-2.367-0.411-3.127-1.231c-0.763-0.821-1.143-1.907-1.143-3.258v-9.115h3.835v8.242c0,0.492,0.173,0.925,0.523,1.3c0.349,0.374,0.885,0.562,1.605,0.562c0.673,0,1.25-0.144,1.731-0.43c0.482-0.286,0.851-0.55,1.108-0.792v-8.882h3.834V27.118z"/>
			<path fill="#FFFF66" d="M118.792,24.784l-2.785,2.601c-1.15-0.475-2.013-1.169-2.588-2.084c-0.576-0.913-0.863-2.003-0.863-3.271v-5.881h-1.267v-2.467h1.267V9.245l3.835-0.266v4.702h2v2.467h-2v4.806c0,0.961,0.216,1.756,0.649,2.392C117.474,23.98,118.058,24.459,118.792,24.784z"/>
		</g>
	</g>

	</g>
<!-- End Detail Box. -->


</g>
<g id="Panel" onmouseup=" draggingPanels=false"><g/></g>
<g id="photoPanel" onmouseup=" draggingPanels=false"><g/></g>








<g id="aboutbox" display="none">
 <g  transform="translate(10,10)" >
		<path fill="#0099CC" stroke="#FFFFFF" d="M0.5,583.5h188V0.5H0.5V583.5z"/>
		<path fill="#99CCEE" stroke="#FFFFFF" stroke-width="1.2426" d="M179.5,40.105H7.5V570.5h172V40.105z"/>
		<g>
			<path fill="none" d="M173.5,568.5h-157v-41h157V568.5z"/>
			<text transform="matrix(1 0 0 1 16.5 540.25)"><tspan x="0" y="0" fill="#009966" font-family="'TrebuchetMS'" font-size="14">For more information, </tspan><tspan x="0" y="17" fill="#009966" font-family="'TrebuchetMS'" font-size="14">see </tspan><tspan x="25.156" y="17" fill="#009966" font-family="'TrebuchetMS'" font-size="14">these </tspan><tspan x="63.513" y="17" fill="#009966" font-family="'TrebuchetMS'" font-size="14">foaf-faq</tspan></text>
		</g>
		<g>
			<path fill="none" d="M174.5,304.5h-157v-44h157V304.5z"/>
			<text transform="matrix(1 0 0 1 17.5 269.5)"><tspan x="0" y="0">A blue broken line indicates that </tspan><tspan x="0" y="12">the person at the hub knows the </tspan><tspan x="0" y="24">person at the perimeter</tspan></text>
		</g>
		<g>
			<path fill="none" d="M174.5,374.5h-157v-44h157V374.5z"/>
			<text transform="matrix(1 0 0 1 17.5 339.5)"><tspan x="0" y="0">A yellow broken line indicates that </tspan><tspan x="0" y="12">the person at the perimater knows </tspan><tspan x="0" y="24">the person at the hub</tspan></text>
		</g>
		<g>
			<path fill="none" d="M173.5,517.5h-157v-54h157V517.5z"/>
			<text transform="matrix(1 0 0 1 16.5 472.5)"><tspan x="0" y="0">Two people joined by a solid white </tspan><tspan x="0" y="12">libne are pictured together (co-</tspan><tspan x="0" y="24">depicted). Click on the green </tspan><tspan x="0" y="36">button to see the picture.</tspan></text>
		</g>
		<g>
			<path fill="none" d="M172.5,431.5h-157v-27h157V431.5z"/>
			<text transform="matrix(1 0 0 1 15.5 413.5)"><tspan x="0" y="0">Two people joined by a solid blue </tspan><tspan x="0" y="12">line know each other</tspan></text>
		</g>
		<g>
			<g>
				<path fill="#F69866" stroke="#000000" stroke-width="1.2561" d="M103.127,71.419v4.927c0,2.312-1.875,4.187-4.188,4.187H86.494
					c-2.312,0-4.187-1.874-4.187-4.187v-4.927"/>
				<path fill="#F70F34" stroke="#000000" stroke-width="1.3956" d="M97.011,87.541h-8.457l-1.645-16.307h11.747L97.011,87.541z"/>
				<g>
					<path fill="#FFFFFF" stroke="#000000" stroke-width="1.0345" d="M99.412,88.426c0,2.012-1.366,3.644-3.051,3.644h-7.623
						c-1.685,0-3.05-1.631-3.05-3.644c0-2.012,1.366-3.643,3.05-3.643h7.624C98.046,84.784,99.412,86.415,99.412,88.426z"/>
					<path d="M95.611,89.047h-5.969v-1.086h5.969V89.047z"/>
				</g>
				<path fill="#38CC99" stroke="#000000" stroke-width="1.2935" d="M104.546,70.795c0,2.381-1.931,4.312-4.312,4.312H85.315
					c-2.381,0-4.312-1.93-4.312-4.312v-5.366c0-2.381,1.931-4.312,4.312-4.312h14.919c2.381,0,4.312,1.931,4.312,4.312V70.795z"/>
				<g>
					<path fill="#FFFFFF" stroke="#000000" stroke-width="1.0345" d="M98.722,58.259c0,2.569-2.083,4.652-4.652,4.652h-2.661
						c-2.569,0-4.652-2.083-4.652-4.652v-2.661c0-2.569,2.083-4.652,4.652-4.652h2.661c2.569,0,4.652,2.083,4.652,4.652V58.259z"/>
					<g id="plus-0_2_">
						<g>
							<path fill="none" stroke="#000000" stroke-width="1.3292" d="M95.059,56.895c0,1.262-1.022,2.285-2.285,2.285
								c-1.262,0-2.285-1.023-2.285-2.285c0-1.261,1.023-2.285,2.285-2.285C94.036,54.61,95.059,55.634,95.059,56.895z"/>
						</g>
					</g>
				</g>
				<g>
					<path id="apron-0_2_" fill="#F5F8CA" stroke="#000000" stroke-width="0.7348" d="M69.354,66.665h46.552v10.633H69.354V66.665z"
						/>
					<text transform="matrix(1 0 0 1 82.4644 75.2993)" enable-background="new    "><tspan x="0" y="0" font-family="'TrebuchetMS'" font-size="9.3041">NICK</tspan></text>
				</g>
			</g>
		</g>
		<g>
			<g>
				<path fill="#F69866" stroke="#000000" stroke-width="1.2561" d="M52.139,71.304v4.926c0,2.312-1.874,4.187-4.187,4.187H35.506
					c-2.312,0-4.187-1.874-4.187-4.187v-4.926"/>
				<path fill="#F70F34" stroke="#000000" stroke-width="1.3956" d="M46.024,87.426h-8.458l-1.645-16.308h11.746L46.024,87.426z"/>
				<g>
					<path fill="#FFFFFF" stroke="#000000" stroke-width="1.0345" d="M48.424,88.312c0,2.012-1.366,3.644-3.05,3.644h-7.623
						c-1.685,0-3.05-1.632-3.05-3.644s1.365-3.643,3.05-3.643h7.624C47.059,84.669,48.424,86.3,48.424,88.312z"/>
					<path d="M44.625,88.933h-5.97v-1.086h5.97V88.933z"/>
				</g>
				<path fill="#38CC99" stroke="#000000" stroke-width="1.2935" d="M53.559,70.68c0,2.381-1.931,4.312-4.312,4.312H34.328
					c-2.381,0-4.312-1.93-4.312-4.312v-5.366c0-2.381,1.931-4.312,4.312-4.312h14.919c2.381,0,4.312,1.931,4.312,4.312V70.68z"/>
				<g>
					<path fill="#FFFFFF" stroke="#000000" stroke-width="1.0345" d="M47.734,58.145c0,2.569-2.083,4.652-4.652,4.652h-2.66
						c-2.569,0-4.652-2.083-4.652-4.652v-2.662c0-2.569,2.083-4.652,4.652-4.652h2.66c2.569,0,4.652,2.083,4.652,4.652V58.145z"/>
					<g id="plus-22_1_">
						<path d="M45.04,57.515h-6.645v-1.208h6.645V57.515z"/>
						<path d="M42.321,60.233v-6.645h-1.208v6.645L42.321,60.233z"/>
					</g>
				</g>
				<g>
					<path id="apron-22_1_" fill="#F5F8CA" stroke="#000000" stroke-width="0.7348" d="M20.044,66.55h43.198v10.633H20.044V66.55z"
						/>
					<text transform="matrix(1 0 0 1 31.8271 75.1846)" enable-background="new    "><tspan x="0" y="0" enable-background="new    " font-family="'TrebuchetMS'" font-size="9.3041">NICK</tspan></text>
				</g>
			</g>
		</g>
		<g>
			<path fill="#0099CC" d="M163.641,71.827c0,10.602-8.596,19.197-19.197,19.197s-19.197-8.595-19.197-19.197
				c0-10.602,8.596-19.197,19.197-19.197S163.641,61.225,163.641,71.827z"/>
			<g>
				<path fill="#FFFFFF" stroke="#000000" stroke-width="1.2561" d="M154.785,71.729v4.927c0,2.312-1.874,4.187-4.187,4.187h-12.446
					c-2.312,0-4.187-1.874-4.187-4.187v-4.927"/>
				<path fill="#F70F34" stroke="#000000" stroke-width="1.3956" d="M148.67,87.851h-8.457l-1.645-16.307h11.746L148.67,87.851z"/>
				<g>
					<path fill="#FFFFFF" stroke="#000000" stroke-width="1.0345" d="M151.07,88.736c0,2.012-1.365,3.644-3.049,3.644h-7.624
						c-1.685,0-3.05-1.631-3.05-3.644c0-2.012,1.365-3.643,3.05-3.643h7.624C149.705,85.093,151.07,86.724,151.07,88.736z"/>
					<path d="M147.271,89.357h-5.971v-1.086h5.971V89.357z"/>
				</g>
				<path fill="#CCFFFF" stroke="#000000" stroke-width="1.2935" d="M156.205,71.104c0,2.381-1.93,4.312-4.312,4.312h-14.919
					c-2.381,0-4.312-1.93-4.312-4.312v-5.366c0-2.381,1.932-4.312,4.312-4.312h14.919c2.382,0,4.312,1.931,4.312,4.312V71.104z"/>
				<g>
					<path fill="#FFFFFF" stroke="#000000" stroke-width="1.0345" d="M150.381,58.569c0,2.569-2.082,4.652-4.652,4.652h-2.66
						c-2.569,0-4.652-2.083-4.652-4.652v-2.661c0-2.569,2.083-4.652,4.652-4.652h2.66c2.57,0,4.652,2.083,4.652,4.652V58.569z"/>
					<g id="plus-0_1_">
						<g>
							<path fill="none" stroke="#000000" stroke-width="1.3292" d="M146.719,57.205c0,1.262-1.023,2.285-2.285,2.285
								s-2.285-1.023-2.285-2.285c0-1.261,1.023-2.285,2.285-2.285S146.719,55.943,146.719,57.205z"/>
						</g>
					</g>
				</g>
				<g>
					<path id="apron-0_1_" fill="#FFFF66" stroke="#000000" stroke-width="0.6873" d="M121.014,66.974h46.552v10.633h-46.552V66.974
						z"/>
					<text transform="matrix(1 0 0 1 134.123 75.6089)" enable-background="new    "><tspan x="0" y="0" font-family="'TrebuchetMS'" font-size="9.3041">NICK</tspan></text>
				</g>
			</g>
		</g>
		<path fill="none" stroke="#CCFFFF" stroke-width="3" stroke-dasharray="12 4" d="M19.5,247.5h59"/>
		<g>
			<path fill="none" d="M172.5,236.578H17V101h155.5V236.578z"/>
			<text transform="matrix(1 0 0 1 17 110)"><tspan x="0" y="0">To e</tspan><tspan x="18.394" y="0">xpand a node click on</tspan><tspan x="116.001" y="0"> </tspan><tspan x="119.014" y="0">+</tspan><tspan x="0" y="12">To r</tspan><tspan x="16.826" y="12">emove a node</tspan><tspan x="79.434" y="12"> </tspan><tspan x="82.446" y="12">click on</tspan><tspan x="117.036" y="12"> -</tspan><tspan x="0" y="24">To display details of an expanded </tspan><tspan x="0" y="36">node, click on o</tspan><tspan x="0" y="48">To move a node</tspan><tspan x="70.093" y="48"> </tspan><tspan x="73.105" y="48">click and drag the </tspan><tspan x="0" y="60">nametag</tspan><tspan x="38.711" y="60">.</tspan><tspan x="0" y="72">Live nodes display personal details </tspan><tspan x="0" y="84">and pictures where available.</tspan><tspan x="0" y="96">Nodes can be expanded only </tspan><tspan x="0" y="108">once, and once removed, a node </tspan><tspan x="0" y="120">cannot be replaced.</tspan></text>
		</g>
		<g>
			<path fill="none" stroke="#FFFFFF" d="M17.167,450.5h61"/>
			<path fill="#38CC99" stroke="#FFFFFF" d="M47.78,446.806c2.32-0.011,4.209,1.86,4.221,4.181c0.012,2.318-1.86,4.209-4.179,4.22
				c-2.32,0.012-4.209-1.86-4.221-4.179C43.589,448.708,45.46,446.817,47.78,446.806"/>
		</g>
		<path fill="none" stroke="#F5F8CA" stroke-width="3" stroke-dasharray="12 4" d="M20.5,314.5h59"/>
		<path fill="none" stroke="#CCFFFF" stroke-width="3" d="M17.5,387.5h59"/>
		<g onclick="gdoc.getElementById('aboutbox').setAttribute('style','display:none')">
			<path fill="#FFFFFF" stroke="#000000" d="M182.605,23.087c0,4.795-3.828,8.68-8.551,8.68h-7.883c-4.723,0-8.551-3.885-8.551-8.68
				v-8.005c0-4.792,3.828-8.679,8.551-8.679h7.883c4.723,0,8.551,3.887,8.551,8.679V23.087z"/>
			<path d="M173.668,21.835l2.021-0.002v-4.856h-2.021V21.835z"/>
			<path d="M177.852,22.816l2.023-0.001v-5.839h-2.021L177.852,22.816z"/>
			<path d="M179.865,19.455v-2.594l-9.394,0.001v2.593H179.865z"/>
			<path fill="#F70F34" stroke="#000000" stroke-width="1.7438" d="M170.904,18.312c0,2.765-2.24,5.005-5.005,5.005
				c-2.766,0-5.007-2.24-5.007-5.005s2.241-5.006,5.007-5.006C168.664,13.306,170.904,15.548,170.904,18.312z"/>
		</g>
		<g>
			<path fill="#FFFF66" d="M19.856,12.104c-0.292-0.101-0.687-0.175-1.185-0.226c-0.498-0.05-0.928-0.075-1.289-0.075
				c-0.604,0-1.059,0.154-1.365,0.461c-0.307,0.308-0.46,0.783-0.46,1.428v1.486h2.853v2.973h-2.853v13.22h-4.621v-13.22H9.409
				v-2.973h1.527v-2.08c0-1.456,0.5-2.679,1.502-3.668c1-0.99,2.251-1.484,3.75-1.484c0.754,0,1.472,0.063,2.151,0.188
				s1.185,0.273,1.517,0.444V12.104z"/>
			<path fill="#FFFF66" d="M38.185,22.973c0,2.661-0.761,4.779-2.286,6.355c-1.524,1.576-3.615,2.365-6.272,2.365
				c-2.858,0-4.999-0.794-6.422-2.38c-1.424-1.585-2.136-3.699-2.136-6.34c0-2.399,0.767-4.452,2.3-6.159
				c1.535-1.707,3.621-2.56,6.258-2.56c2.647,0,4.735,0.788,6.264,2.364C37.42,18.194,38.185,20.313,38.185,22.973z M33.524,22.973
				c0-1.309-0.345-2.473-1.033-3.493c-0.689-1.02-1.641-1.529-2.857-1.529c-1.397,0-2.397,0.465-3,1.395
				c-0.604,0.93-0.905,2.139-0.905,3.628c0,1.389,0.362,2.574,1.086,3.554c0.723,0.979,1.693,1.469,2.909,1.469
				c1.357,0,2.33-0.397,2.917-1.192C33.23,26.009,33.524,24.732,33.524,22.973z"/>
			<path fill="#FFFF66" d="M59.155,28.91l-3.597,2.983c-0.552-0.183-1.034-0.473-1.446-0.866c-0.412-0.396-0.683-0.847-0.814-1.354
				l-2.835,1.613c-0.11,0.06-0.299,0.123-0.565,0.188c-0.266,0.066-0.491,0.099-0.671,0.099c-2.182,0-3.983-0.75-5.406-2.249
				c-1.423-1.5-2.134-3.583-2.134-6.25c0-2.536,0.74-4.626,2.219-6.271c1.479-1.645,3.366-2.468,5.66-2.468
				c0.916,0,1.771,0.183,2.566,0.55c0.795,0.366,1.318,0.691,1.569,0.977l2.612-0.964l0.884,0.281v10.352
				c0,0.905,0.158,1.625,0.474,2.157C57.987,28.222,58.482,28.628,59.155,28.91z M52.816,26.66v-7.102
				c-0.302-0.375-0.698-0.696-1.186-0.964c-0.488-0.269-1.085-0.402-1.789-0.402c-1.017,0-1.861,0.37-2.53,1.109
				c-0.67,0.739-1.004,1.965-1.004,3.674c0,1.359,0.312,2.449,0.936,3.268c0.625,0.821,1.5,1.231,2.628,1.231
				c0.644,0,1.249-0.097,1.812-0.292C52.248,26.988,52.625,26.815,52.816,26.66z"/>
			<path fill="#FFFF66" d="M72.205,12.104c-0.292-0.101-0.687-0.175-1.185-0.226c-0.498-0.05-0.928-0.075-1.289-0.075
				c-0.604,0-1.059,0.154-1.365,0.461c-0.307,0.308-0.46,0.783-0.46,1.428v1.486h2.853v2.973h-2.853v13.22h-4.621v-13.22h-1.527
				v-2.973h1.527v-2.08c0-1.456,0.5-2.679,1.502-3.668c1-0.99,2.251-1.484,3.75-1.484c0.755,0,1.472,0.063,2.151,0.188
				c0.68,0.125,1.185,0.273,1.517,0.444V12.104z"/>
			<path fill="#FFFF66" d="M89.488,31.371h-4.621V21.18c0-0.595-0.209-1.12-0.631-1.578c-0.42-0.458-1.066-0.688-1.935-0.688
				c-0.831,0-1.526,0.177-2.086,0.532c-0.56,0.354-1.005,0.686-1.334,0.995v10.929H74.26V15.178l4.621-0.321v1.567l1.914-1.108
				c0.572-0.334,1.157-0.574,1.755-0.721s1.193-0.22,1.786-0.22c1.597,0,2.855,0.495,3.774,1.485
				c0.919,0.991,1.379,2.295,1.379,3.914V31.371z"/>
			<path fill="#FFFF66" d="M111.202,28.91l-3.596,2.983c-0.553-0.183-1.035-0.473-1.447-0.866c-0.411-0.396-0.683-0.847-0.813-1.354
				l-2.836,1.613c-0.109,0.06-0.299,0.123-0.564,0.188c-0.266,0.066-0.49,0.099-0.671,0.099c-2.181,0-3.985-0.75-5.405-2.249
				c-1.425-1.5-2.136-3.583-2.136-6.25c0-2.536,0.74-4.626,2.22-6.271c1.479-1.645,3.365-2.468,5.658-2.468
				c0.917,0,1.771,0.183,2.566,0.55c0.795,0.366,1.318,0.691,1.57,0.977l2.611-0.964l0.885,0.281v10.352
				c0,0.905,0.158,1.625,0.475,2.157C110.035,28.222,110.529,28.628,111.202,28.91z M104.863,26.66v-7.102
				c-0.303-0.375-0.698-0.696-1.186-0.964c-0.489-0.269-1.084-0.402-1.79-0.402c-1.017,0-1.86,0.37-2.528,1.109
				c-0.672,0.739-1.005,1.965-1.005,3.674c0,1.359,0.312,2.449,0.937,3.268c0.623,0.821,1.499,1.231,2.627,1.231
				c0.646,0,1.25-0.097,1.813-0.292C104.295,26.988,104.674,26.815,104.863,26.66z"/>
			<path fill="#FFFF66" d="M130.158,31.371h-4.62v-1.833l-1.911,1.085c-0.531,0.301-1.09,0.534-1.67,0.7
				c-0.582,0.166-1.209,0.249-1.881,0.249c-1.595,0-2.852-0.495-3.769-1.484c-0.919-0.99-1.378-2.298-1.378-3.925V15.178h4.621
				v9.933c0,0.592,0.209,1.115,0.631,1.565c0.42,0.451,1.066,0.677,1.936,0.677c0.811,0,1.506-0.173,2.086-0.518
				c0.58-0.346,1.025-0.663,1.335-0.954V15.178h4.62V31.371z"/>
			<path fill="#FFFF66" d="M143.043,28.558l-3.355,3.134c-1.387-0.573-2.426-1.409-3.119-2.512c-0.693-1.1-1.039-2.415-1.039-3.942
				v-7.087h-1.527v-2.973h1.527V9.833l4.621-0.321v5.666h2.41v2.973h-2.41v5.792c0,1.158,0.261,2.117,0.783,2.882
				C141.456,27.589,142.159,28.166,143.043,28.558z"/>
		</g>
		<path fill="#99CCEE" d="M171.128,37.849l-10.364-3.589h20.268L171.128,37.849z"/>
	</g>
</g>
</svg>